<svg width="24" height="24" viewBox="0 0 24 24" fill="none" xmlns="http://www.w3.org/2000/svg">
    <path d="M20.9469 8.30496C20.9375 7.54752 20.7957 6.79757 20.5279 6.08896C20.2968 5.4908 19.9432 4.94756 19.4898 4.49413C19.0363 4.04069 18.4931 3.68707 17.8949 3.45596C17.1953 3.1932 16.4561 3.05118 15.7089 3.03596C14.7469 2.99296 14.4419 2.98096 11.9999 2.98096C9.55795 2.98096 9.24495 2.98096 8.28995 3.03596C7.54309 3.0513 6.80426 3.19331 6.10495 3.45596C5.50679 3.68707 4.96356 4.04069 4.51012 4.49413C4.05668 4.94756 3.70306 5.4908 3.47195 6.08896C3.20965 6.78833 3.06797 7.52716 3.05295 8.27396C3.00995 9.23696 2.99695 9.54196 2.99695 11.984C2.99695 14.426 2.99695 14.738 3.05295 15.694C3.06795 16.442 3.20895 17.18 3.47195 17.881C3.70329 18.479 4.05712 19.0221 4.51072 19.4754C4.96433 19.9287 5.5077 20.2821 6.10595 20.513C6.80347 20.7859 7.54236 20.938 8.29095 20.963C9.25395 21.006 9.55895 21.019 12.0009 21.019C14.4429 21.019 14.7559 21.019 15.7109 20.963C16.4581 20.948 17.1973 20.8064 17.8969 20.544C18.4945 20.3118 19.0372 19.9578 19.4905 19.5045C19.9438 19.0512 20.2978 18.5085 20.5299 17.911C20.7929 17.211 20.9339 16.473 20.9489 15.724C20.9919 14.762 21.0049 14.457 21.0049 12.014C21.0029 9.57196 21.0029 9.26196 20.9469 8.30496ZM11.9939 16.602C9.43995 16.602 7.37095 14.533 7.37095 11.979C7.37095 9.42496 9.43995 7.35596 11.9939 7.35596C13.22 7.35596 14.3959 7.84302 15.2629 8.71C16.1299 9.57698 16.6169 10.7529 16.6169 11.979C16.6169 13.2051 16.1299 14.3809 15.2629 15.2479C14.3959 16.1149 13.22 16.602 11.9939 16.602ZM16.8009 8.26296C16.6593 8.26309 16.5191 8.2353 16.3883 8.18117C16.2574 8.12704 16.1385 8.04764 16.0384 7.94751C15.9383 7.84738 15.8589 7.72849 15.8047 7.59765C15.7506 7.4668 15.7228 7.32656 15.7229 7.18496C15.7229 7.04346 15.7508 6.90334 15.805 6.77262C15.8591 6.64189 15.9385 6.5231 16.0385 6.42305C16.1386 6.32299 16.2574 6.24363 16.3881 6.18948C16.5188 6.13533 16.6589 6.10746 16.8004 6.10746C16.9419 6.10746 17.0821 6.13533 17.2128 6.18948C17.3435 6.24363 17.4623 6.32299 17.5624 6.42305C17.6624 6.5231 17.7418 6.64189 17.7959 6.77262C17.8501 6.90334 17.8779 7.04346 17.8779 7.18496C17.8779 7.78096 17.3959 8.26296 16.8009 8.26296Z" fill="#262322"/>
    <path d="M11.994 14.9821C13.6525 14.9821 14.997 13.6376 14.997 11.9791C14.997 10.3206 13.6525 8.97607 11.994 8.97607C10.3355 8.97607 8.99097 10.3206 8.99097 11.9791C8.99097 13.6376 10.3355 14.9821 11.994 14.9821Z" fill="#262322"/>
</svg>
